PathFileType	4	(X/Y/Z)	Patient4_TMGait_0pt6_02_right_29.trc.trc
DataRate	CameraRate	NumFrames	NumMarkers	Units	OrigDataRate	OrigDataStartFrame	OrigNumFrames
81.395348837209	81.395348837209	5	33	mm	81.395348837209	106	       141
Frame#	Time	Sacral			L.Shoulder			Chest			R.Shoulder			Neck			R.ASIS			L.ASIS			R.Thigh.Superior			R.Thigh.Lateral			R.Thigh.Inferior			R.Patella			L.Thigh.Superior			L.Thigh.Lateral			L.Thigh.Inferior			L.Patella			L.Shank.Superior			L.Shank.Lateral			L.Shank.Inferior			R.Shank.Superior			R.Shank.Lateral			R.Shank.Inferior			R.Heel			R.Midfoot.Superior			R.Midfoot.Lateral			R.Toe			L.Heel			L.Midfoot.Lateral			L.Midfoot.Superior			L.Toe			L.Elbow			L.Wrist			R.Elbow			R.Wrist			
		X1	Y1	Z1	X2	Y2	Z2	X3	Y3	Z3	X4	Y4	Z4	X5	Y5	Z5	X6	Y6	Z6	X7	Y7	Z7	X8	Y8	Z8	X9	Y9	Z9	X10	Y10	Z10	X11	Y11	Z11	X12	Y12	Z12	X13	Y13	Z13	X14	Y14	Z14	X15	Y15	Z15	X16	Y16	Z16	X17	Y17	Z17	X18	Y18	Z18	X19	Y19	Z19	X20	Y20	Z20	X21	Y21	Z21	X22	Y22	Z22	X23	Y23	Z23	X24	Y24	Z24	X25	Y25	Z25	X26	Y26	Z26	X27	Y27	Z27	X28	Y28	Z28	X29	Y29	Z29	X30	Y30	Z30	X31	Y31	Z31	X32	Y32	Z32	X33	Y33	Z33	

106	36.170000000000	870.443374161956	1020.255501822198	414.490139410875	1101.667901948196	1424.129351411251	222.768446140446	1184.223489636372	1352.391666803955	393.287964475088	1096.294045379541	1444.212265614798	554.712581451901	1098.433908671866	1493.142224826979	370.484090346943	1087.154374767266	954.638589315461	547.353069653428	1092.782198743272	955.705923097612	272.360518112890	1181.046721374558	803.622765608193	526.519317927095	1154.800162180974	685.657448790931	610.063271218610	1247.629528566457	652.765382309080	531.623409083019	1288.115679564763	555.501509391620	560.420982237372	1124.004797834738	745.110790029801	309.987055879181	1030.923746832724	635.085771337034	249.313263040197	1106.975485099188	553.315164341297	318.089385806256	1100.696502374699	484.086448806495	329.285135072999	1071.687773694324	414.570966015807	321.930538018678	978.121824452854	303.182331312139	271.230294574586	1021.050981566884	192.142612075092	347.847939963198	1244.666988236689	466.106603790364	573.545543745080	1155.037943372544	381.324896903965	640.427505473630	1190.114770117142	274.522955338853	597.116293849793	1040.634402047787	123.418074835259	577.437244781884	1215.469794748625	158.107590132484	622.628002758871	1118.414626939215	108.631649621197	657.008543217745	1324.128982073846	93.146983720808	660.240016450883	886.656357361141	39.565937730841	391.762342242150	961.767749251831	35.885120174304	312.233455136648	1044.748285530840	95.914837632253	340.140121079448	1173.736638819232	43.016330585336	314.210380931066	1112.646842573853	1077.212913738050	92.377343216911	1285.096769235319	879.975148596988	103.889333856522	980.817554146233	1122.327290127150	689.252698634995	980.530152313880	862.007983975547	724.380296878177	
107	36.182285714286	868.720145924406	1020.193027420684	413.953577305941	1101.936160280923	1423.314799508750	223.103356474236	1183.672315340973	1351.444514426306	393.958331319567	1095.479442005433	1443.693398351710	554.995851706390	1098.342753668724	1492.456618806237	370.731167776286	1084.721320648699	954.034287945190	548.043462002978	1091.570843162093	955.179939971849	272.893322668600	1178.177835214284	803.655613597720	527.296065031453	1152.081636682607	685.591760394293	610.836828376692	1245.317325327605	653.300704769499	532.698955412205	1287.018413001578	557.964053367244	561.197121642788	1121.502544176628	744.181501681886	310.470591125480	1027.715100971889	634.693141198448	249.599193211600	1102.778764642364	552.382975140906	318.637590436969	1095.916703582097	483.241205157860	329.959510758995	1066.605460014316	413.869368257758	322.444303039720	972.665355490136	303.027457503966	271.302470593575	1014.371048043283	191.719706631780	348.138425659476	1247.402415587704	467.985298673612	574.275307096237	1162.417601192375	379.039806948158	641.688271712433	1202.630763022342	274.024374170216	598.120167515231	1060.666422698167	116.385964629365	579.010050583488	1234.295191363727	157.896138044198	623.235396097433	1139.598227472971	104.218330709607	657.887912932341	1345.807393432235	97.219593729625	659.509553504435	879.242943859308	39.583091315763	391.723632990610	954.343707097627	35.869886009744	312.219818456724	1037.351662272497	95.823311166361	340.235527555388	1166.347159079146	42.791558042511	314.248410068715	1115.271529047298	1077.496364575084	91.039742278155	1296.605212646717	888.597444780274	104.134914292689	975.240664607665	1123.977424364367	689.467974734007	965.668092261746	864.382125804858	727.109048159715	
108	36.194571428571	867.167263540889	1020.175753139293	413.572922243713	1102.217215107233	1422.504628560743	223.536309816423	1183.194857242278	1350.558036782283	394.713653909955	1094.795859344794	1443.299146662243	555.375203169730	1098.298332666037	1491.810494841755	371.051454836376	1082.442925213385	953.411150481829	548.875329919574	1090.436528114208	954.725455489947	273.559767691111	1175.168781830051	803.368820512489	528.333582295221	1148.915896899850	685.090041409146	611.706580693187	1242.702661776401	653.385932175601	534.032686772489	1285.328255092547	559.938397291741	562.028109869872	1118.924087452202	743.237881605061	310.944688313570	1024.312023488498	634.366140925378	249.921090361506	1098.360542046845	551.461095846035	319.142151006140	1090.906167464687	482.449481932072	330.568582094535	1061.316046442005	413.234328266305	322.902811109095	966.994894121525	302.914957940308	271.385094815167	1007.618115154479	191.353321041140	348.380975330255	1249.498073188695	469.573910684870	574.950155825364	1169.209054932952	376.722094561147	642.794908601881	1214.364987367955	273.736430886231	598.877340063141	1080.017077263061	110.126375455561	580.228732558337	1252.267498877918	158.015374742928	623.465336562971	1160.013083424317	100.352389381396	658.315046796490	1366.368710943809	101.466781311379	658.197176214844	871.818130265335	39.606857750193	391.681656796401	946.912353175673	35.855045858841	312.201878074185	1029.944550973429	95.750625460272	340.301133845322	1158.940237864727	42.605967468939	314.280406306194	1117.494256888385	1077.698958662528	90.028117001481	1307.282658945265	897.630660880683	104.734994434245	969.688974490727	1126.013551491020	689.986789503670	952.489334102132	867.303604868161	729.226745504555	
109	36.206857142857	865.810877811765	1020.177338561293	413.373577197640	1102.490680764377	1421.716258301008	224.060343717762	1182.774161285745	1349.745534249571	395.541992806229	1094.217364446311	1443.024430492764	555.840900048832	1098.274234644015	1491.211667689588	371.441978056612	1080.375689186944	952.786388124672	549.840738179223	1089.413861274546	954.362449439688	274.346940489911	1172.114358557376	802.772244918828	529.608965963207	1145.428448654249	684.159606441458	612.645776080589	1239.860845218124	653.004259311371	535.544020680868	1283.114465239206	561.380755672473	562.846809868521	1116.272698224884	742.284707734587	311.462426426782	1020.730353708408	634.113600913625	250.277864511379	1093.712026061769	550.558946545049	319.617274578708	1085.652138302280	481.717946214983	331.113537397677	1055.813942874323	412.675456876849	323.306123613499	961.108729278917	302.850317441004	271.474596863218	1000.792780140480	191.048507467923	348.575454624062	1250.953974140889	470.810620141344	575.553404915649	1175.312564399275	374.354668896519	643.730870973484	1225.134945864853	273.574502883386	599.400906946151	1098.332515905544	104.593074531776	581.119129584407	1269.091719020427	158.358599049128	623.368377772516	1179.305133794087	96.978404510225	658.344511306030	1385.505747980835	105.729563524433	656.424084055628	864.385021508035	39.641557807058	391.639264407868	939.476628223885	35.842713219097	312.183244273830	1022.533932478312	95.695529732544	340.338526216197	1151.520516667833	42.453793979289	314.307196984927	1119.327487254190	1077.815322090073	89.366458782418	1317.072103359874	907.003901689950	105.685673605047	964.179886612059	1128.399795777695	690.781921136960	940.922621760879	870.555564402115	730.842745929092	
110	36.219142857143	864.673476174637	1020.163120931584	413.381922850984	1102.729129459292	1420.959193129278	224.670331650591	1182.388840449591	1349.014066611481	396.432028064935	1093.712587539459	1442.855660477615	556.384641882693	1098.237516387970	1490.659794448142	371.901123481259	1078.572594895904	952.162391943529	550.930291050201	1088.534944467859	954.098669801880	275.243143757662	1169.117453166292	801.873635341527	531.081994579562	1141.761026389860	682.818304056336	613.623976207125	1236.866000827991	652.138148696682	537.139417732603	1280.456031796344	562.248555609244	563.594068877259	1113.565018123307	741.326347987148	312.074151710686	1016.997203430578	633.940000943057	250.670403623967	1088.839636009823	549.685435278179	320.076271692096	1080.158770858057	481.050463838314	331.595880768362	1050.105745633912	412.198129556618	323.655111617450	955.014514381899	302.838044407880	271.567682597768	993.899680189939	190.807570765684	348.722232358400	1251.773928347719	471.623409444182	576.072435829841	1180.614990923588	371.904042009507	644.474338211812	1234.749984924911	273.423389383010	599.699991288423	1115.237965515104	99.691051466348	581.674654315624	1284.448009360962	158.789309280245	622.995436545267	1197.086487385054	93.999989301739	658.018382404877	1402.889331519668	109.825696062434	654.339363106202	856.947795112307	39.691157531046	391.598452506582	932.039800741132	35.834525431583	312.167262654705	1015.126474187067	95.655926393131	340.349921067461	1144.093171903711	42.328417943525	314.329730840773	1120.785691450062	1077.837948005616	89.072751605084	1325.931823855519	916.633369776595	106.982101776943	958.748567325166	1131.072692536420	691.805611403573	930.867413698126	873.948167601787	732.061766968995	
